<?xml version="1.0" standalone="no"?>
<!DOCTYPE svg PUBLIC "-//W3C//DTD SVG 20010904//EN"
 "http://www.w3.org/TR/2001/REC-SVG-20010904/DTD/svg10.dtd">
<svg version="1.0" xmlns="http://www.w3.org/2000/svg"
 width="1024.000000pt" height="1024.000000pt" viewBox="0 0 1024.000000 1024.000000"
 preserveAspectRatio="xMidYMid meet">

<g transform="translate(0.000000,1024.000000) scale(0.100000,-0.100000)"
fill="#000000" stroke="none">
<path d="M1855 10234 c-16 -2 -73 -9 -125 -15 -247 -28 -529 -127 -760 -267
-496 -300 -825 -783 -942 -1385 l-22 -112 -3 -3127 -3 -3128 312 0 c448 0 947
24 1278 60 47 5 144 14 215 20 198 16 642 82 1220 181 956 164 1653 224 2315
201 561 -20 816 -47 1615 -172 105 -16 217 -33 250 -39 33 -5 200 -31 370 -59
326 -54 547 -84 730 -102 61 -6 173 -17 250 -25 418 -42 695 -55 1248 -55
l437 0 -3 3123 c-4 3451 2 3161 -66 3421 -142 544 -525 1014 -1030 1266 -188
94 -355 150 -574 192 l-112 22 -3285 2 c-1807 0 -3298 0 -3315 -2z m4050
-2140 c265 -6 318 -14 517 -75 340 -104 619 -289 794 -525 110 -148 240 -396
297 -564 73 -215 72 -201 72 -1365 l0 -1040 -23 -112 c-66 -329 -212 -593
-466 -849 -226 -227 -389 -325 -691 -418 -189 -58 -156 -56 -1262 -58 -1098
-1 -1095 -1 -1269 52 -177 55 -325 124 -474 223 -90 61 -114 80 -205 166 -162
153 -277 306 -364 485 -102 208 -143 369 -161 638 -14 215 -15 1876 -1 1997
23 195 62 330 141 495 123 259 362 531 608 694 150 99 240 142 385 186 162 49
287 68 502 76 197 8 1179 4 1600 -6z"/>
<path d="M4245 2478 c-55 -4 -206 -12 -335 -18 -129 -6 -271 -15 -315 -21 -44
-5 -100 -11 -125 -14 -193 -20 -464 -49 -615 -66 -172 -19 -233 -27 -650 -84
-99 -14 -232 -30 -295 -35 -63 -6 -194 -17 -290 -25 -262 -23 -828 -36 -1249
-28 l-374 6 6 -199 c8 -289 47 -497 132 -714 265 -672 843 -1134 1572 -1257
103 -17 260 -18 3403 -18 3603 0 3374 -4 3625 60 689 174 1235 710 1429 1403
47 164 67 312 73 530 l6 202 -69 0 c-38 0 -217 -5 -399 -10 -338 -10 -859 0
-1045 20 -52 5 -165 14 -250 20 -178 13 -575 53 -730 75 -181 26 -489 65 -635
80 -77 8 -174 20 -215 25 -41 6 -113 13 -160 16 -47 2 -103 7 -125 10 -175 23
-430 36 -775 40 -801 8 -1498 9 -1595 2z"/>
</g>
</svg>
